<svg width="66" height="38" viewBox="0 0 66 38" fill="none" xmlns="http://www.w3.org/2000/svg">
<path fill-rule="evenodd" clip-rule="evenodd" d="M15 0C12.2386 0 9.99998 2.23858 9.99998 5V17.0875L0.463181 23.1563C-0.154318 23.5493 -0.154317 24.4507 0.463182 24.8437L9.99998 30.9125V33C9.99998 35.7614 12.2386 38 15 38H61C63.7614 38 66 35.7614 66 33V5C66 2.23858 63.7614 0 61 0H15Z" fill="#19304D"/>
<path d="M27.4919 17.31C28.1519 17.31 28.7319 17.45 29.2319 17.73C29.7319 18.01 30.1169 18.405 30.3869 18.915C30.6669 19.425 30.8069 20.01 30.8069 20.67C30.8069 21.35 30.6519 21.95 30.3419 22.47C30.0419 22.99 29.6069 23.395 29.0369 23.685C28.4769 23.965 27.8219 24.105 27.0719 24.105C26.4219 24.105 25.7769 23.99 25.1369 23.76C24.5069 23.53 23.9819 23.22 23.5619 22.83L24.1019 21.69C25.0519 22.46 26.0469 22.845 27.0869 22.845C27.7869 22.845 28.3319 22.66 28.7219 22.29C29.1119 21.91 29.3069 21.38 29.3069 20.7C29.3069 20.05 29.1119 19.53 28.7219 19.14C28.3319 18.75 27.8119 18.555 27.1619 18.555C26.2319 18.555 25.4669 18.915 24.8669 19.635H23.8769V13.425H30.3569V14.67H25.4069V18C25.9569 17.54 26.6519 17.31 27.4919 17.31ZM35.9761 24.12C34.7461 24.12 33.8061 23.66 33.1561 22.74C32.5161 21.82 32.1961 20.48 32.1961 18.72C32.1961 16.96 32.5161 15.62 33.1561 14.7C33.8061 13.77 34.7461 13.305 35.9761 13.305C37.2061 13.305 38.1411 13.765 38.7811 14.685C39.4311 15.605 39.7561 16.945 39.7561 18.705C39.7561 20.475 39.4311 21.82 38.7811 22.74C38.1411 23.66 37.2061 24.12 35.9761 24.12ZM35.9761 22.875C36.7461 22.875 37.3111 22.54 37.6711 21.87C38.0311 21.2 38.2111 20.145 38.2111 18.705C38.2111 17.275 38.0311 16.23 37.6711 15.57C37.3111 14.9 36.7461 14.565 35.9761 14.565C35.2061 14.565 34.6411 14.9 34.2811 15.57C33.9211 16.23 33.7411 17.275 33.7411 18.705C33.7411 20.135 33.9211 21.19 34.2811 21.87C34.6411 22.54 35.2061 22.875 35.9761 22.875ZM44.9102 24.39L43.8602 23.79L50.0852 13.035L51.1352 13.635L44.9102 24.39ZM43.8152 19.755C43.0052 19.755 42.3702 19.48 41.9102 18.93C41.4502 18.38 41.2202 17.575 41.2202 16.515C41.2202 15.455 41.4502 14.655 41.9102 14.115C42.3702 13.565 43.0052 13.29 43.8152 13.29C44.6352 13.29 45.2752 13.565 45.7352 14.115C46.1952 14.655 46.4252 15.455 46.4252 16.515C46.4252 17.585 46.1952 18.395 45.7352 18.945C45.2752 19.485 44.6352 19.755 43.8152 19.755ZM43.8152 18.735C44.2552 18.735 44.5802 18.56 44.7902 18.21C45.0002 17.85 45.1052 17.285 45.1052 16.515C45.1052 15.755 45.0002 15.2 44.7902 14.85C44.5802 14.5 44.2552 14.325 43.8152 14.325C43.3752 14.325 43.0502 14.5 42.8402 14.85C42.6402 15.19 42.5402 15.745 42.5402 16.515C42.5402 17.285 42.6402 17.85 42.8402 18.21C43.0502 18.56 43.3752 18.735 43.8152 18.735ZM51.1802 24.105C50.3602 24.105 49.7202 23.835 49.2602 23.295C48.8002 22.745 48.5702 21.935 48.5702 20.865C48.5702 19.805 48.8002 19.005 49.2602 18.465C49.7202 17.915 50.3602 17.64 51.1802 17.64C51.9902 17.64 52.6252 17.915 53.0852 18.465C53.5552 19.005 53.7902 19.805 53.7902 20.865C53.7902 21.925 53.5602 22.73 53.1002 23.28C52.6402 23.83 52.0002 24.105 51.1802 24.105ZM51.1802 23.085C51.6202 23.085 51.9402 22.91 52.1402 22.56C52.3502 22.2 52.4552 21.635 52.4552 20.865C52.4552 20.105 52.3502 19.55 52.1402 19.2C51.9302 18.84 51.6102 18.66 51.1802 18.66C50.7402 18.66 50.4152 18.835 50.2052 19.185C49.9952 19.535 49.8902 20.095 49.8902 20.865C49.8902 21.635 49.9952 22.2 50.2052 22.56C50.4152 22.91 50.7402 23.085 51.1802 23.085Z" fill="white"/>
</svg>
