<svg width="56" height="47" viewBox="0 0 56 47" fill="none" xmlns="http://www.w3.org/2000/svg">
<path fill-rule="evenodd" clip-rule="evenodd" d="M5 0C2.23858 0 0 2.23858 0 5V33C0 35.7614 2.23858 38 5 38H9.59187L14.7937 46.1742C15.1866 46.7917 16.088 46.7917 16.481 46.1742L21.6828 38H51C53.7614 38 56 35.7614 56 33V5C56 2.23858 53.7614 0 51 0H5Z" fill="#19304D"/>
<path d="M17.5293 16.295C18.1693 16.295 18.7343 16.44 19.2243 16.73C19.7243 17.01 20.1093 17.405 20.3793 17.915C20.6593 18.425 20.7993 19.01 20.7993 19.67C20.7993 20.33 20.6493 20.925 20.3493 21.455C20.0593 21.975 19.6493 22.385 19.1193 22.685C18.5893 22.975 17.9943 23.12 17.3343 23.12C16.0243 23.12 15.0143 22.675 14.3043 21.785C13.6043 20.885 13.2543 19.605 13.2543 17.945C13.2543 16.765 13.4193 15.755 13.7493 14.915C14.0793 14.065 14.5593 13.42 15.1893 12.98C15.8193 12.53 16.5693 12.305 17.4393 12.305C18.0593 12.305 18.6643 12.415 19.2543 12.635C19.8443 12.855 20.3593 13.17 20.7993 13.58L20.2443 14.72C19.3043 13.95 18.3843 13.565 17.4843 13.565C16.6243 13.565 15.9593 13.945 15.4893 14.705C15.0193 15.455 14.7843 16.525 14.7843 17.915V17.96C15.0043 17.44 15.3593 17.035 15.8493 16.745C16.3493 16.445 16.9093 16.295 17.5293 16.295ZM17.2593 21.86C17.8793 21.86 18.3743 21.665 18.7443 21.275C19.1143 20.875 19.2993 20.35 19.2993 19.7C19.2993 19.05 19.1093 18.53 18.7293 18.14C18.3593 17.75 17.8643 17.555 17.2443 17.555C16.6243 17.555 16.1143 17.755 15.7143 18.155C15.3143 18.545 15.1143 19.06 15.1143 19.7C15.1143 20.34 15.3093 20.86 15.6993 21.26C16.0993 21.66 16.6193 21.86 17.2593 21.86ZM29.9888 19.58V20.81H28.4438V23H26.9288V20.81H22.1738V19.655L27.1838 12.425H28.4438V19.58H29.9888ZM23.6888 19.58H26.9288V14.9L23.6888 19.58ZM34.9029 23.39L33.8529 22.79L40.0779 12.035L41.1279 12.635L34.9029 23.39ZM33.8079 18.755C32.9979 18.755 32.3629 18.48 31.9029 17.93C31.4429 17.38 31.2129 16.575 31.2129 15.515C31.2129 14.455 31.4429 13.655 31.9029 13.115C32.3629 12.565 32.9979 12.29 33.8079 12.29C34.6279 12.29 35.2679 12.565 35.7279 13.115C36.1879 13.655 36.4179 14.455 36.4179 15.515C36.4179 16.585 36.1879 17.395 35.7279 17.945C35.2679 18.485 34.6279 18.755 33.8079 18.755ZM33.8079 17.735C34.2479 17.735 34.5729 17.56 34.7829 17.21C34.9929 16.85 35.0979 16.285 35.0979 15.515C35.0979 14.755 34.9929 14.2 34.7829 13.85C34.5729 13.5 34.2479 13.325 33.8079 13.325C33.3679 13.325 33.0429 13.5 32.8329 13.85C32.6329 14.19 32.5329 14.745 32.5329 15.515C32.5329 16.285 32.6329 16.85 32.8329 17.21C33.0429 17.56 33.3679 17.735 33.8079 17.735ZM41.1729 23.105C40.3529 23.105 39.7129 22.835 39.2529 22.295C38.7929 21.745 38.5629 20.935 38.5629 19.865C38.5629 18.805 38.7929 18.005 39.2529 17.465C39.7129 16.915 40.3529 16.64 41.1729 16.64C41.9829 16.64 42.6179 16.915 43.0779 17.465C43.5479 18.005 43.7829 18.805 43.7829 19.865C43.7829 20.925 43.5529 21.73 43.0929 22.28C42.6329 22.83 41.9929 23.105 41.1729 23.105ZM41.1729 22.085C41.6129 22.085 41.9329 21.91 42.1329 21.56C42.3429 21.2 42.4479 20.635 42.4479 19.865C42.4479 19.105 42.3429 18.55 42.1329 18.2C41.9229 17.84 41.6029 17.66 41.1729 17.66C40.7329 17.66 40.4079 17.835 40.1979 18.185C39.9879 18.535 39.8829 19.095 39.8829 19.865C39.8829 20.635 39.9879 21.2 40.1979 21.56C40.4079 21.91 40.7329 22.085 41.1729 22.085Z" fill="white"/>
</svg>
