<svg width="152" height="152" viewBox="0 0 152 152" fill="none" xmlns="http://www.w3.org/2000/svg">
<path d="M142 71C142 107.451 112.451 137 76 137C39.5492 137 10 107.451 10 71C10 34.5492 39.5492 5 76 5C112.451 5 142 34.5492 142 71ZM19.24 71C19.24 102.348 44.6523 127.76 76 127.76C107.348 127.76 132.76 102.348 132.76 71C132.76 39.6523 107.348 14.24 76 14.24C44.6523 14.24 19.24 39.6523 19.24 71Z" fill="#FFFBF5"/>
<g filter="url(#filter0_d)">
<path d="M76 132.38C76 134.932 73.9288 137.017 71.3835 136.838C59.0749 135.975 47.2202 131.675 37.1902 124.384C25.9113 116.184 17.5193 104.622 13.2181 91.3576C8.91691 78.093 8.92758 63.8068 13.2486 50.5486C17.5696 37.2904 25.9788 25.7415 37.27 17.5585C48.5612 9.37562 62.1541 4.97924 76.0986 5.00007C90.0432 5.02091 103.623 9.4579 114.89 17.6745C126.156 25.8911 134.531 37.4652 138.812 50.7362C142.62 62.5378 143.016 75.142 140.004 87.1077C139.382 89.5821 136.755 90.9012 134.33 90.107C131.906 89.3127 130.603 86.7059 131.198 84.2246C133.619 74.1218 133.226 63.5162 130.019 53.5732C126.337 42.16 119.134 32.2064 109.445 25.1401C99.7556 18.0738 88.0771 14.258 76.0848 14.2401C64.0925 14.2221 52.4026 18.003 42.6922 25.0403C32.9818 32.0777 25.7498 42.0097 22.0338 53.4118C18.3177 64.8139 18.3085 77.0999 22.0076 88.5075C25.7066 99.9151 32.9237 109.858 42.6236 116.91C51.0741 123.053 61.0307 126.728 71.385 127.572C73.9281 127.78 76 129.828 76 132.38Z" fill="#F6AE2D"/>
</g>
<path d="M54.84 75L53.704 72.36H48.216L47.08 75H45L50.104 63.72H51.784L56.888 75H54.84ZM48.888 70.76H53.016L50.952 65.96L48.888 70.76ZM61.79 75.144C60.926 75.144 60.1153 75.0267 59.358 74.792C58.6007 74.5573 57.9607 74.2267 57.438 73.8L58.126 72.296C58.67 72.712 59.2407 73.016 59.838 73.208C60.446 73.4 61.102 73.496 61.806 73.496C62.5847 73.496 63.182 73.3627 63.598 73.096C64.0247 72.8187 64.238 72.4347 64.238 71.944C64.238 71.5173 64.0407 71.192 63.646 70.968C63.262 70.744 62.6167 70.5307 61.71 70.328C60.7713 70.1253 60.0087 69.8907 59.422 69.624C58.8353 69.3573 58.3927 69.016 58.094 68.6C57.7953 68.184 57.646 67.656 57.646 67.016C57.646 66.3547 57.8273 65.7627 58.19 65.24C58.5527 64.7173 59.0647 64.312 59.726 64.024C60.3873 63.7253 61.15 63.576 62.014 63.576C62.8033 63.576 63.5553 63.6987 64.27 63.944C64.9847 64.1787 65.5713 64.504 66.03 64.92L65.342 66.424C64.3393 65.624 63.23 65.224 62.014 65.224C61.2887 65.224 60.7127 65.3733 60.286 65.672C59.87 65.96 59.662 66.3653 59.662 66.888C59.662 67.3253 59.8487 67.6613 60.222 67.896C60.5953 68.1307 61.23 68.3493 62.126 68.552C63.0753 68.7653 63.8433 69.0053 64.43 69.272C65.0273 69.528 65.4807 69.8587 65.79 70.264C66.11 70.6693 66.27 71.1813 66.27 71.8C66.27 72.472 66.0887 73.064 65.726 73.576C65.374 74.0773 64.8567 74.4667 64.174 74.744C63.502 75.0107 62.7073 75.144 61.79 75.144ZM71.9931 75.144C71.1291 75.144 70.3185 75.0267 69.5611 74.792C68.8038 74.5573 68.1638 74.2267 67.6411 73.8L68.3291 72.296C68.8731 72.712 69.4438 73.016 70.0411 73.208C70.6491 73.4 71.3051 73.496 72.0091 73.496C72.7878 73.496 73.3851 73.3627 73.8011 73.096C74.2278 72.8187 74.4411 72.4347 74.4411 71.944C74.4411 71.5173 74.2438 71.192 73.8491 70.968C73.4651 70.744 72.8198 70.5307 71.9131 70.328C70.9745 70.1253 70.2118 69.8907 69.6251 69.624C69.0385 69.3573 68.5958 69.016 68.2971 68.6C67.9985 68.184 67.8491 67.656 67.8491 67.016C67.8491 66.3547 68.0305 65.7627 68.3931 65.24C68.7558 64.7173 69.2678 64.312 69.9291 64.024C70.5905 63.7253 71.3531 63.576 72.2171 63.576C73.0065 63.576 73.7585 63.6987 74.4731 63.944C75.1878 64.1787 75.7745 64.504 76.2331 64.92L75.5451 66.424C74.5425 65.624 73.4331 65.224 72.2171 65.224C71.4918 65.224 70.9158 65.3733 70.4891 65.672C70.0731 65.96 69.8651 66.3653 69.8651 66.888C69.8651 67.3253 70.0518 67.6613 70.4251 67.896C70.7985 68.1307 71.4331 68.3493 72.3291 68.552C73.2785 68.7653 74.0465 69.0053 74.6331 69.272C75.2305 69.528 75.6838 69.8587 75.9931 70.264C76.3131 70.6693 76.4731 71.1813 76.4731 71.8C76.4731 72.472 76.2918 73.064 75.9291 73.576C75.5771 74.0773 75.0598 74.4667 74.3771 74.744C73.7051 75.0107 72.9105 75.144 71.9931 75.144ZM78.3723 75V63.72H85.9243V65.352H80.3883V68.456H85.6042V70.072H80.3883V73.368H85.9243V75H78.3723ZM90.4658 75V65.416H86.7858V63.72H96.2098V65.416H92.5298V75H90.4658ZM101.087 75.144C100.223 75.144 99.4122 75.0267 98.6549 74.792C97.8975 74.5573 97.2575 74.2267 96.7349 73.8L97.4229 72.296C97.9669 72.712 98.5375 73.016 99.1349 73.208C99.7429 73.4 100.399 73.496 101.103 73.496C101.882 73.496 102.479 73.3627 102.895 73.096C103.322 72.8187 103.535 72.4347 103.535 71.944C103.535 71.5173 103.338 71.192 102.943 70.968C102.559 70.744 101.914 70.5307 101.007 70.328C100.068 70.1253 99.3055 69.8907 98.7189 69.624C98.1322 69.3573 97.6895 69.016 97.3909 68.6C97.0922 68.184 96.9429 67.656 96.9429 67.016C96.9429 66.3547 97.1242 65.7627 97.4869 65.24C97.8495 64.7173 98.3615 64.312 99.0229 64.024C99.6842 63.7253 100.447 63.576 101.311 63.576C102.1 63.576 102.852 63.6987 103.567 63.944C104.282 64.1787 104.868 64.504 105.327 64.92L104.639 66.424C103.636 65.624 102.527 65.224 101.311 65.224C100.586 65.224 100.01 65.3733 99.5829 65.672C99.1669 65.96 98.9589 66.3653 98.9589 66.888C98.9589 67.3253 99.1455 67.6613 99.5189 67.896C99.8922 68.1307 100.527 68.3493 101.423 68.552C102.372 68.7653 103.14 69.0053 103.727 69.272C104.324 69.528 104.778 69.8587 105.087 70.264C105.407 70.6693 105.567 71.1813 105.567 71.8C105.567 72.472 105.386 73.064 105.023 73.576C104.671 74.0773 104.154 74.4667 103.471 74.744C102.799 75.0107 102.004 75.144 101.087 75.144Z" fill="white"/>
<defs>
<filter id="filter0_d" x="0" y="0" width="152" height="151.849" filterUnits="userSpaceOnUse" color-interpolation-filters="sRGB">
<feFlood flood-opacity="0" result="BackgroundImageFix"/>
<feColorMatrix in="SourceAlpha" type="matrix" values="0 0 0 0 0 0 0 0 0 0 0 0 0 0 0 0 0 0 127 0"/>
<feOffset dy="5"/>
<feGaussianBlur stdDeviation="5"/>
<feColorMatrix type="matrix" values="0 0 0 0 0.8492 0 0 0 0 0.556042 0 0 0 0 0.0308 0 0 0 0.4 0"/>
<feBlend mode="normal" in2="BackgroundImageFix" result="effect1_dropShadow"/>
<feBlend mode="normal" in="SourceGraphic" in2="effect1_dropShadow" result="shape"/>
</filter>
</defs>
</svg>
