<svg width="142" height="152" viewBox="0 0 142 152" fill="none" xmlns="http://www.w3.org/2000/svg">
<path d="M142 71C142 107.451 112.451 137 76 137C39.5492 137 10 107.451 10 71C10 34.5492 39.5492 5 76 5C112.451 5 142 34.5492 142 71ZM19.24 71C19.24 102.348 44.6523 127.76 76 127.76C107.348 127.76 132.76 102.348 132.76 71C132.76 39.6523 107.348 14.24 76 14.24C44.6523 14.24 19.24 39.6523 19.24 71Z" fill="#F8E9E2"/>
<g filter="url(#filter0_d)">
<path d="M76 132.38C76 134.932 73.9287 137.017 71.3834 136.838C55.5661 135.73 40.6157 128.954 29.331 117.669C16.9536 105.292 10 88.5043 10 71C10 53.4957 16.9536 36.7084 29.331 24.331C40.6157 13.0462 55.5661 6.27001 71.3834 5.16153C73.9287 4.98315 76 7.06844 76 9.62C76 12.1716 73.9278 14.2204 71.3847 14.4278C58.0208 15.5176 45.4159 21.3133 35.8646 30.8646C25.2201 41.5092 19.24 55.9463 19.24 71C19.24 86.0537 25.2201 100.491 35.8646 111.135C45.4159 120.687 58.0208 126.482 71.3847 127.572C73.9278 127.78 76 129.828 76 132.38Z" fill="#FF6542"/>
</g>
<path d="M61.24 76.144C60.1413 76.144 59.1867 75.9093 58.376 75.44C57.576 74.9707 56.9573 74.2987 56.52 73.424C56.0827 72.5493 55.864 71.5253 55.864 70.352C55.864 69.1787 56.0773 68.16 56.504 67.296C56.9413 66.4213 57.5653 65.7493 58.376 65.28C59.1867 64.8107 60.1413 64.576 61.24 64.576C62.3387 64.576 63.288 64.8107 64.088 65.28C64.8987 65.7493 65.5173 66.4213 65.944 67.296C66.3813 68.16 66.6 69.1787 66.6 70.352C66.6 71.5253 66.3813 72.5493 65.944 73.424C65.5067 74.2987 64.8827 74.9707 64.072 75.44C63.272 75.9093 62.328 76.144 61.24 76.144ZM61.24 74.496C62.2747 74.496 63.08 74.1387 63.656 73.424C64.2427 72.7093 64.536 71.6853 64.536 70.352C64.536 69.0187 64.2427 68 63.656 67.296C63.08 66.5813 62.2747 66.224 61.24 66.224C60.1947 66.224 59.3787 66.5813 58.792 67.296C58.216 68 57.928 69.0187 57.928 70.352C57.928 71.6853 58.216 72.7093 58.792 73.424C59.3787 74.1387 60.1947 74.496 61.24 74.496ZM68.6848 64.72H73.6128C74.8181 64.72 75.7568 65.024 76.4288 65.632C77.1008 66.2293 77.4368 67.072 77.4368 68.16C77.4368 69.248 77.1008 70.096 76.4288 70.704C75.7568 71.312 74.8181 71.616 73.6128 71.616H70.7488V76H68.6848V64.72ZM73.3568 70.032C74.7754 70.032 75.4848 69.4133 75.4848 68.176C75.4848 67.5467 75.3088 67.0827 74.9568 66.784C74.6048 66.4747 74.0714 66.32 73.3568 66.32H70.7488V70.032H73.3568ZM79.2473 76V64.72H86.7993V66.352H81.2633V69.456H86.4792V71.072H81.2633V74.368H86.7993V76H79.2473ZM93.8238 70.272L98.1118 76H95.7118L92.6558 71.776L89.5838 76H87.1837L91.4878 70.256L87.3438 64.72H89.7438L92.6558 68.768L95.5838 64.72H97.9838L93.8238 70.272Z" fill="black"/>
<defs>
<filter id="filter0_d" x="0" y="0.150872" width="86" height="151.698" filterUnits="userSpaceOnUse" color-interpolation-filters="sRGB">
<feFlood flood-opacity="0" result="BackgroundImageFix"/>
<feColorMatrix in="SourceAlpha" type="matrix" values="0 0 0 0 0 0 0 0 0 0 0 0 0 0 0 0 0 0 127 0"/>
<feOffset dy="5"/>
<feGaussianBlur stdDeviation="5"/>
<feColorMatrix type="matrix" values="0 0 0 0 0.8492 0 0 0 0 0.325424 0 0 0 0 0.0308 0 0 0 0.4 0"/>
<feBlend mode="normal" in2="BackgroundImageFix" result="effect1_dropShadow"/>
<feBlend mode="normal" in="SourceGraphic" in2="effect1_dropShadow" result="shape"/>
</filter>
</defs>
</svg>
