<svg width="56" height="47" viewBox="0 0 56 47" fill="none" xmlns="http://www.w3.org/2000/svg">
<path fill-rule="evenodd" clip-rule="evenodd" d="M5 0C2.23858 0 0 2.23858 0 5V33C0 35.7614 2.23858 38 5 38H9.59187L14.7937 46.1742C15.1866 46.7917 16.088 46.7917 16.481 46.1742L21.6828 38H51C53.7614 38 56 35.7614 56 33V5C56 2.23858 53.7614 0 51 0H5Z" fill="black"/>
<path d="M18.9019 17.57C19.5219 17.75 20.0019 18.07 20.3419 18.53C20.6819 18.99 20.8519 19.54 20.8519 20.18C20.8519 21.1 20.5119 21.82 19.8319 22.34C19.1619 22.85 18.2119 23.105 16.9819 23.105C15.7519 23.105 14.7969 22.85 14.1169 22.34C13.4469 21.82 13.1119 21.1 13.1119 20.18C13.1119 19.53 13.2819 18.975 13.6219 18.515C13.9719 18.055 14.4569 17.74 15.0769 17.57C14.5469 17.37 14.1269 17.055 13.8169 16.625C13.5169 16.195 13.3669 15.695 13.3669 15.125C13.3669 14.255 13.6869 13.57 14.3269 13.07C14.9669 12.56 15.8519 12.305 16.9819 12.305C18.1119 12.305 18.9969 12.56 19.6369 13.07C20.2769 13.57 20.5969 14.255 20.5969 15.125C20.5969 15.695 20.4419 16.2 20.1319 16.64C19.8319 17.07 19.4219 17.38 18.9019 17.57ZM16.9819 13.55C16.2819 13.55 15.7519 13.7 15.3919 14C15.0319 14.29 14.8519 14.71 14.8519 15.26C14.8519 15.83 15.0319 16.265 15.3919 16.565C15.7519 16.865 16.2819 17.015 16.9819 17.015C17.6819 17.015 18.2119 16.865 18.5719 16.565C18.9319 16.265 19.1119 15.83 19.1119 15.26C19.1119 14.71 18.9319 14.29 18.5719 14C18.2119 13.7 17.6819 13.55 16.9819 13.55ZM16.9819 21.86C18.5719 21.86 19.3669 21.265 19.3669 20.075C19.3669 18.875 18.5719 18.275 16.9819 18.275C15.3919 18.275 14.5969 18.875 14.5969 20.075C14.5969 21.265 15.3919 21.86 16.9819 21.86ZM25.9761 23.12C24.7461 23.12 23.8061 22.66 23.1561 21.74C22.5161 20.82 22.1961 19.48 22.1961 17.72C22.1961 15.96 22.5161 14.62 23.1561 13.7C23.8061 12.77 24.7461 12.305 25.9761 12.305C27.2061 12.305 28.1411 12.765 28.7811 13.685C29.4311 14.605 29.7561 15.945 29.7561 17.705C29.7561 19.475 29.4311 20.82 28.7811 21.74C28.1411 22.66 27.2061 23.12 25.9761 23.12ZM25.9761 21.875C26.7461 21.875 27.3111 21.54 27.6711 20.87C28.0311 20.2 28.2111 19.145 28.2111 17.705C28.2111 16.275 28.0311 15.23 27.6711 14.57C27.3111 13.9 26.7461 13.565 25.9761 13.565C25.2061 13.565 24.6411 13.9 24.2811 14.57C23.9211 15.23 23.7411 16.275 23.7411 17.705C23.7411 19.135 23.9211 20.19 24.2811 20.87C24.6411 21.54 25.2061 21.875 25.9761 21.875ZM34.9102 23.39L33.8602 22.79L40.0852 12.035L41.1352 12.635L34.9102 23.39ZM33.8152 18.755C33.0052 18.755 32.3702 18.48 31.9102 17.93C31.4502 17.38 31.2202 16.575 31.2202 15.515C31.2202 14.455 31.4502 13.655 31.9102 13.115C32.3702 12.565 33.0052 12.29 33.8152 12.29C34.6352 12.29 35.2752 12.565 35.7352 13.115C36.1952 13.655 36.4252 14.455 36.4252 15.515C36.4252 16.585 36.1952 17.395 35.7352 17.945C35.2752 18.485 34.6352 18.755 33.8152 18.755ZM33.8152 17.735C34.2552 17.735 34.5802 17.56 34.7902 17.21C35.0002 16.85 35.1052 16.285 35.1052 15.515C35.1052 14.755 35.0002 14.2 34.7902 13.85C34.5802 13.5 34.2552 13.325 33.8152 13.325C33.3752 13.325 33.0502 13.5 32.8402 13.85C32.6402 14.19 32.5402 14.745 32.5402 15.515C32.5402 16.285 32.6402 16.85 32.8402 17.21C33.0502 17.56 33.3752 17.735 33.8152 17.735ZM41.1802 23.105C40.3602 23.105 39.7202 22.835 39.2602 22.295C38.8002 21.745 38.5702 20.935 38.5702 19.865C38.5702 18.805 38.8002 18.005 39.2602 17.465C39.7202 16.915 40.3602 16.64 41.1802 16.64C41.9902 16.64 42.6252 16.915 43.0852 17.465C43.5552 18.005 43.7902 18.805 43.7902 19.865C43.7902 20.925 43.5602 21.73 43.1002 22.28C42.6402 22.83 42.0002 23.105 41.1802 23.105ZM41.1802 22.085C41.6202 22.085 41.9402 21.91 42.1402 21.56C42.3502 21.2 42.4552 20.635 42.4552 19.865C42.4552 19.105 42.3502 18.55 42.1402 18.2C41.9302 17.84 41.6102 17.66 41.1802 17.66C40.7402 17.66 40.4152 17.835 40.2052 18.185C39.9952 18.535 39.8902 19.095 39.8902 19.865C39.8902 20.635 39.9952 21.2 40.2052 21.56C40.4152 21.91 40.7402 22.085 41.1802 22.085Z" fill="white"/>
</svg>
