<svg width="16" height="18" viewBox="0 0 16 18" fill="none" xmlns="http://www.w3.org/2000/svg">
<path d="M3.10855 12.475H0.444078C0.198947 12.475 0 12.674 0 12.9191V17.3066C0 17.5517 0.198947 17.7507 0.444078 17.7507H3.10855C3.35368 17.7507 3.55262 17.5517 3.55262 17.3066V12.9191C3.55262 12.6731 3.35456 12.475 3.10855 12.475ZM2.66447 16.8625H0.888156V13.3632H2.66447V16.8625Z" fill="#B7BDCD"/>
<path d="M15.9593 13.3481C15.7461 12.6367 14.5747 11.546 13.8437 11.546C13.698 11.546 13.5666 11.5815 13.452 11.6517L9.20042 14.2513H7.99342V12.9191C7.99342 12.674 7.79447 12.475 7.54934 12.475H4.88487C4.63974 12.475 4.4408 12.674 4.4408 12.9191V17.3066C4.4408 17.5517 4.63974 17.7507 4.88487 17.7507H10.1312C10.2183 17.7507 10.3026 17.7258 10.3746 17.6778L15.7035 14.1785C15.9673 14.0053 16.0623 13.6954 15.9593 13.3481ZM9.99888 16.8625H5.32895V13.3632H7.10526V14.6954C7.10526 14.9406 7.30421 15.1395 7.54934 15.1395H9.32565C9.40736 15.1395 9.4873 15.1173 9.55746 15.0747L13.8437 12.4342C14.1315 12.4386 14.9166 13.15 15.0827 13.5239L9.99888 16.8625Z" fill="#B7BDCD"/>
<path d="M6.66118 6.21708C6.41605 6.21708 6.2171 6.41603 6.2171 6.66116C6.2171 6.90629 6.41605 7.10524 6.66118 7.10524H8.88157V9.32563C8.88157 9.57076 9.08052 9.7697 9.32565 9.7697C9.57078 9.7697 9.76973 9.57076 9.76973 9.32563V7.10524H11.9901C12.2352 7.10524 12.4342 6.90629 12.4342 6.66116C12.4342 6.41603 12.2352 6.21708 11.9901 6.21708H9.76973V3.99669C9.76973 3.75156 9.57078 3.55261 9.32565 3.55261C9.08052 3.55261 8.88157 3.75156 8.88157 3.99669V6.21708H6.66118Z" fill="#B7BDCD"/>
<path d="M11.9901 2.66447H13.3223V3.9967C13.3223 4.24183 13.5213 4.44078 13.7664 4.44078C14.0115 4.44078 14.2105 4.24183 14.2105 3.9967V2.66447H15.5427C15.7879 2.66447 15.9868 2.46552 15.9868 2.22039C15.9868 1.97526 15.7879 1.77631 15.5427 1.77631H14.2105V0.444078C14.2105 0.198947 14.0115 0 13.7664 0C13.5213 0 13.3223 0.198947 13.3223 0.444078V1.77631H11.9901C11.745 1.77631 11.546 1.97526 11.546 2.22039C11.546 2.46552 11.745 2.66447 11.9901 2.66447Z" fill="#B7BDCD"/>
<path d="M4.88487 2.66446H5.32895V3.10854C5.32895 3.35367 5.5279 3.55262 5.77303 3.55262C6.01816 3.55262 6.21711 3.35367 6.21711 3.10854V2.66446H6.66119C6.90632 2.66446 7.10526 2.46552 7.10526 2.22039C7.10526 1.97526 6.90632 1.77631 6.66119 1.77631H6.21711V1.33223C6.21711 1.0871 6.01816 0.888153 5.77303 0.888153C5.5279 0.888153 5.32895 1.0871 5.32895 1.33223V1.77631H4.88487C4.63974 1.77631 4.4408 1.97526 4.4408 2.22039C4.4408 2.46552 4.63974 2.66446 4.88487 2.66446Z" fill="#B7BDCD"/>
</svg>
